<?xml version="1.0" encoding="UTF-8"?>
<svg xmlns="http://www.w3.org/2000/svg" width="512" height="512" viewBox="0 0 512 512">
  <defs>
    <linearGradient id="grad1" x1="0%" y1="0%" x2="100%" y2="100%">
      <stop offset="0%" stop-color="#6C63FF"/>
      <stop offset="100%" stop-color="#00D9A5"/>
    </linearGradient>
  </defs>
  <rect width="512" height="512" rx="100" ry="100" fill="#0D0D1A"/>
  <g transform="translate(256,280)">
    <path d="M0,-100 C-25,-130 -75,-130 -100,-100 C-125,-70 -125,-25 -100,10 C-75,45 -25,80 0,110 C25,80 75,45 100,10 C125,-25 125,-70 100,-100 C75,-130 25,-130 0,-100 Z" fill="none" stroke="url(#grad1)" stroke-width="20"/>
    <path d="M-50,0 Q-25,-30 0,0 Q25,30 50,0" fill="none" stroke="url(#grad1)" stroke-width="14" stroke-linecap="round"/>
  </g>
</svg>
